<svg xmlns="http://www.w3.org/2000/svg" xmlns:xlink="http://www.w3.org/1999/xlink" style="isolation:isolate" viewBox="0 0 280 300" width="280" height="300"><path d=" M 260 219 L 140 289 L 20 219 L 20 81 L 140 12 L 260 81 L 260 219 Z  M 110 144 L 90 156 L 89 155 L 100 162 L 120 150 L 120 150 L 120 150 L 110 144 L 110 144 L 110 144 Z  M 150 133 L 140 127 L 130 133 L 140 139 L 150 133 L 150 133 L 150 133 Z  M 160 150 L 180 162 L 190 156 L 170 144 L 160 150 L 160 150 L 160 150 L 160 150 L 160 150 Z  M 140 162 L 180 185 L 210 167 L 220 173 L 220 219 L 240 208 L 240 162 L 230 156 L 240 150 L 240 92 L 220 81 L 220 139 L 210 144 L 210 144 L 190 133 L 200 127 L 200 69 L 180 58 L 180 115 L 170 121 L 140 104 L 110 121 L 100 115 L 100 58 L 80 69 L 80 127 L 90 133 L 70 144 L 60 139 L 60 81 L 40 92 L 40 150 L 50 156 L 50 156 L 40 162 L 40 208 L 60 219 L 60 173 L 70 167 L 100 185 L 140 162 L 140 162 L 140 162 Z " fill-rule="evenodd" fill="rgb(46,46,46)"/><g><path d=" M 190 156 L 180 162 L 130 133 L 110 144 L 180 185 L 210 167 M 230 156 L 240 150 L 240 92 L 220 81 L 220 139 Q 214 142 210 144 M 110 121 L 100 115 L 100 58 L 80 69 L 80 127 L 90 133" fill-rule="evenodd" fill="rgb(255,102,0)"/><path d=" M 70 167 L 60 173 L 60 219 L 40 208 L 40 162 L 50 156 M 70 144 L 140 104 L 170 121 L 170 121 L 150 133 L 140 127 L 90 156 M 170 144 L 220 173 L 220 219 L 240 208 L 240 162 L 190 133 L 170 144 Z " fill-rule="evenodd" fill="rgb(255,204,0)"/><path d=" M 120 150 L 100 162 L 60 139 L 60 81 L 40 92 L 40 150 L 100 185 L 140 162 L 120 150 L 120 150 Z  M 160 150 L 200 127 L 200 69 L 180 58 L 180 115 L 140 139 L 160 150 Z " fill="rgb(68,170,0)"/></g></svg>
