<svg xmlns="http://www.w3.org/2000/svg" xmlns:xlink="http://www.w3.org/1999/xlink" style="isolation:isolate" viewBox="0 0 280 300" width="280" height="300"><defs><clipPath id="_clipPath_d3CAtJrCtCpg1hdLuCXTurqG7DOpOFz3"><rect width="280" height="300"/></clipPath></defs><g clip-path="url(#_clipPath_d3CAtJrCtCpg1hdLuCXTurqG7DOpOFz3)"><g style="isolation:isolate"><path d=" M 260 219.393 L 140 288.675 L 20 219.393 L 20 80.829 L 140 11.547 L 260 80.829 L 260 219.393 Z " fill="rgb(46,46,46)"/></g><g style="isolation:isolate"><path d=" M 190 155.885 L 180 161.658 L 130 132.791 L 110 144.338 L 180 184.752 L 210 167.432 M 230 155.885 L 240 150.111 L 240 92.376 L 220 80.829 L 220 138.564 Q 213.903 142.084 210 144.338 M 110 121.244 L 100 115.47 L 100 57.735 L 80 69.282 L 80 127.017 L 90 132.791" fill-rule="evenodd" fill="rgb(255,102,0)"/><path d=" M 170 144.338 L 220 173.205 L 220 219.393 L 240 207.846 L 240 161.658 L 190 132.791 L 170 144.338 Z  M 170 121.244 L 140 103.923 L 40 161.658 L 40 207.846 L 60 219.393 L 60 173.205 L 140 127.017 L 150 132.791 L 170 121.244 L 170 121.244 Z " fill-rule="evenodd" fill="rgb(255,204,0)"/><path d=" M 120 150.111 L 100 161.658 L 60 138.564 L 60 80.829 L 40 92.376 L 40 150.111 L 100 184.752 L 140 161.658 L 120 150.111 L 120 150.111 Z  M 160 150.111 L 200 127.017 L 200 69.282 L 180 57.735 L 180 115.47 L 139.943 138.583 L 160 150.111 Z " fill="rgb(68,170,0)"/></g></g></svg>
