<?xml version="1.0" encoding="utf-8"?>
<!-- Generator: Adobe Illustrator 23.0.0, SVG Export Plug-In . SVG Version: 6.00 Build 0)  -->
<svg version="1.1" id="Ebene_1" xmlns="http://www.w3.org/2000/svg" xmlns:xlink="http://www.w3.org/1999/xlink" x="0px" y="0px"
	 viewBox="0 0 322.2 396.6" style="enable-background:new 0 0 322.2 396.6;" xml:space="preserve">
<style type="text/css">
	.st0{clip-path:url(#SVGID_2_);fill:url(#SVGID_3_);}
</style>
<g>
	<defs>
		<path id="SVGID_1_" d="M156.3,342.2c0,2.1,1.4,3.9,3.3,4.6v20.9c-1.9,0.6-3.3,2.4-3.3,4.6c0,2.7,2.2,4.8,4.8,4.8
			c2.7,0,4.8-2.2,4.8-4.8c0-2.1-1.4-3.9-3.3-4.6v-20.9c1.9-0.6,3.3-2.4,3.3-4.6c0-2.7-2.2-4.8-4.8-4.8
			C158.4,337.4,156.3,339.6,156.3,342.2 M103.9,334.1c-1.5,2.2-1,5.2,1.2,6.7c1.7,1.2,4,1.1,5.6-0.1l17.2,12
			c-0.6,1.9,0.1,4.1,1.8,5.3c2.2,1.5,5.2,1,6.7-1.2c1.5-2.2,1-5.2-1.2-6.7c-1.7-1.2-4-1.1-5.6,0.1l-17.2-12c0.6-1.9-0.1-4.1-1.8-5.3
			c-0.8-0.6-1.8-0.9-2.8-0.9C106.4,332,104.9,332.7,103.9,334.1 M212,332.9c-1.7,1.2-2.4,3.4-1.8,5.3l-17.2,12
			c-1.6-1.2-3.9-1.3-5.6-0.1c-2.2,1.5-2.7,4.5-1.2,6.7c1.5,2.2,4.5,2.7,6.7,1.2c1.7-1.2,2.4-3.4,1.8-5.3l17.2-12
			c1.6,1.2,3.9,1.4,5.6,0.1c2.2-1.5,2.7-4.5,1.2-6.7c-0.9-1.3-2.4-2.1-4-2.1C213.8,332,212.8,332.3,212,332.9 M43.7,265.2
			c-1.6,0.7-2.8,1.6-3.6,2.8c-0.8,1.2-1.2,2.5-1.2,3.9c0,1.6,0.4,2.9,1.3,3.9c0.9,1,1.9,1.7,3,2.1c1.2,0.4,2.6,0.8,4.4,1.2
			c1.4,0.3,2.3,0.5,2.9,0.8c0.6,0.2,0.9,0.6,0.9,1.1c0,0.4-0.2,0.7-0.7,0.9c-0.5,0.2-1.2,0.3-2.3,0.3c-1.2,0-2.5-0.2-3.9-0.6
			c-1.3-0.4-2.5-0.9-3.6-1.5l-2.5,5.6c1.1,0.7,2.6,1.3,4.4,1.7c1.8,0.4,3.6,0.6,5.5,0.6c2.3,0,4.2-0.3,5.8-1
			c1.6-0.7,2.8-1.6,3.6-2.8c0.8-1.2,1.2-2.4,1.2-3.9c0-1.6-0.4-2.9-1.3-3.9c-0.9-1-1.9-1.6-3.1-2.1c-1.2-0.4-2.6-0.8-4.4-1.1
			c-1.3-0.3-2.3-0.5-2.9-0.7c-0.6-0.2-0.9-0.6-0.9-1c0-0.9,1-1.4,2.9-1.4c2,0,4.1,0.6,6.3,1.7l2.3-5.5c-1.1-0.6-2.5-1.1-4-1.5
			c-1.5-0.3-3-0.5-4.6-0.5C47.2,264.2,45.3,264.5,43.7,265.2 M264.1,245.4v5.9h6.6V268h7.6v-16.7h6.6v-5.9H264.1z M46,242.1
			c-0.8-0.5-1.4-1.1-1.8-2c-0.5-0.9-0.7-1.9-0.7-3s0.2-2.1,0.7-3c0.5-0.9,1.1-1.5,1.8-2c0.8-0.5,1.6-0.7,2.6-0.7
			c1,0,1.8,0.2,2.6,0.7c0.8,0.5,1.4,1.1,1.8,2c0.5,0.9,0.7,1.9,0.7,3s-0.2,2.1-0.7,3c-0.5,0.9-1.1,1.5-1.8,2
			c-0.8,0.5-1.6,0.7-2.6,0.7C47.6,242.8,46.8,242.6,46,242.1 M42,226.8c-1.9,1-3.5,2.4-4.6,4.2c-1.1,1.8-1.7,3.8-1.7,6.1
			c0,2.3,0.6,4.3,1.7,6.1c1.1,1.8,2.6,3.2,4.6,4.2c1.9,1,4.1,1.5,6.6,1.5c2.4,0,4.6-0.5,6.6-1.5c1.9-1,3.5-2.4,4.6-4.2
			c1.1-1.8,1.7-3.8,1.7-6.1c0-2.3-0.5-4.3-1.7-6.1c-1.1-1.8-2.6-3.2-4.6-4.2c-1.9-1-4.1-1.5-6.6-1.5C46.1,225.3,43.9,225.8,42,226.8
			 M270.2,208c-1.6,0.7-2.8,1.6-3.6,2.8c-0.8,1.2-1.2,2.5-1.2,3.9c0,1.6,0.4,2.9,1.3,3.9c0.9,1,1.9,1.7,3,2.1
			c1.2,0.4,2.6,0.8,4.4,1.2c1.4,0.3,2.3,0.5,2.9,0.8c0.6,0.2,0.9,0.6,0.9,1.1c0,0.4-0.2,0.7-0.7,0.9c-0.5,0.2-1.2,0.3-2.3,0.3
			c-1.2,0-2.5-0.2-3.9-0.6c-1.3-0.4-2.5-0.9-3.6-1.5l-2.5,5.6c1.1,0.7,2.6,1.3,4.4,1.7c1.8,0.4,3.6,0.6,5.5,0.6c2.3,0,4.2-0.3,5.8-1
			c1.6-0.7,2.8-1.6,3.6-2.8c0.8-1.2,1.2-2.4,1.2-3.9c0-1.6-0.4-2.9-1.3-3.9c-0.9-0.9-1.9-1.6-3.1-2.1c-1.2-0.4-2.6-0.8-4.4-1.1
			c-1.3-0.3-2.3-0.5-2.9-0.7c-0.6-0.2-0.9-0.6-0.9-1c0-0.9,1-1.4,2.9-1.4c2,0,4.1,0.6,6.3,1.7l2.3-5.5c-1.1-0.6-2.5-1.1-4-1.5
			c-1.5-0.3-3-0.5-4.6-0.5C273.7,207,271.8,207.4,270.2,208 M48.5,194.5l2.2,5.7h-4.4L48.5,194.5z M44.8,187l-9.9,22.7h7.8l1.5-4
			h8.6l1.5,4h7.9L52.3,187H44.8z M265.1,167.7v22.7h18.9v-5.8h-11.3v-3h9.6v-5.5h-9.6v-2.7h10.9v-5.8H265.1z M52.3,147.6v8h-7.1v-8
			h-7.6v22.7h7.6v-8.4h7.1v8.4H60v-22.7H52.3z M286.5,128.3l-4.2,13.1l-4-13.1h-7l-4.2,12.9l-4-12.9h-7.9l7.3,22.7h8.2l3.9-12.1
			l3.7,12.1h8.2l7.3-22.7H286.5z M43.3,109.7c-1.9,1-3.4,2.4-4.5,4.2c-1.1,1.8-1.6,3.9-1.6,6.1c0,2.3,0.5,4.3,1.6,6.1
			c1.1,1.8,2.6,3.2,4.5,4.2c1.9,1,4.1,1.5,6.5,1.5c2.2,0,4.2-0.4,5.9-1.2c1.7-0.8,3.2-1.9,4.3-3.4l-4.8-4.3c-1.4,1.8-3.1,2.7-5,2.7
			c-1.6,0-2.9-0.5-3.9-1.5c-1-1-1.5-2.4-1.5-4.1c0-1.7,0.5-3.1,1.5-4.1c1-1,2.3-1.5,3.9-1.5c1.9,0,3.6,0.9,5,2.7l4.8-4.3
			c-1.1-1.5-2.5-2.6-4.3-3.4c-1.7-0.8-3.7-1.2-5.9-1.2C47.4,108.2,45.2,108.7,43.3,109.7 M145.3,263.6c0-2.7,2.2-4.9,4.9-4.9
			c2.7,0,4.9,2.2,4.9,4.9c0,2.7-2.2,4.9-4.9,4.9C147.5,268.5,145.3,266.3,145.3,263.6 M165.4,263.6c0-2.7,2.2-4.9,4.9-4.9
			c2.7,0,4.9,2.2,4.9,4.9c0,2.7-2.2,4.9-4.9,4.9C167.6,268.5,165.4,266.3,165.4,263.6 M107.7,218.4c0-2.7,2.2-4.9,4.9-4.9
			c2.7,0,4.9,2.2,4.9,4.9c0,2.7-2.2,4.9-4.9,4.9C109.9,223.3,107.7,221.1,107.7,218.4 M203,218.4c0-2.7,2.2-4.9,4.9-4.9
			s4.9,2.2,4.9,4.9c0,2.7-2.2,4.9-4.9,4.9S203,221.1,203,218.4 M202,184.7c0-2.7,2.2-4.9,4.9-4.9c2.7,0,4.9,2.2,4.9,4.9
			c0,2.7-2.2,4.9-4.9,4.9C204.2,189.6,202,187.4,202,184.7 M310,105.4l9.2,6.3v173.1l-9.2,6.3V105.4z M3,284.8V111.7l10-6.9v186.9
			L3,284.8z M202,108.3c0-2.7,2.2-4.9,4.9-4.9c2.7,0,4.9,2.2,4.9,4.9c0,2.7-2.2,4.9-4.9,4.9C204.2,113.1,202,110.9,202,108.3
			 M131.9,74.7h58.8c0.8,1.6,2.4,2.8,4.3,2.8c0.8,0,1.6-0.2,2.2-0.6l41.7,24.9v115.7h-23.3c-0.5-3.8-3.8-6.8-7.8-6.8
			c-4.3,0-7.9,3.5-7.9,7.9c0,3.8,2.7,7,6.3,7.7V284l-7.8,8.9h-17.5l-9.8-9v-12.5c3.9-0.5,6.9-3.8,6.9-7.8c0-4.3-3.5-7.9-7.9-7.9
			c-3.6,0-6.7,2.5-7.6,5.9h-5c-0.9-3.4-3.9-5.9-7.6-5.9c-4.3,0-7.9,3.5-7.9,7.9c0,4,3,7.3,6.9,7.8v12.5l-9.8,9h-17.5l-7.8-8.9v-57.9
			c3.6-0.7,6.3-3.9,6.3-7.7c0-4.3-3.5-7.9-7.9-7.9c-4.3,0-7.9,3.5-7.9,7.9c0,3.8,2.8,7,6.4,7.7v59l9.4,10.8h20l11.6-10.7v-14
			c3-0.8,5.3-3.4,5.8-6.6h4.6c0.4,3.2,2.7,5.7,5.8,6.6v14l11.6,10.7h20l9.4-10.8v-59c3-0.6,5.4-2.8,6.2-5.7H239V342l-0.9-1.2
			l-76.6,52.8h-0.8l-76.6-52.8V147h29.8v18.3l17.7,20.9h67.5V186c0.6,3.7,3.8,6.6,7.7,6.6c4.3,0,7.9-3.5,7.9-7.9
			c0-4.3-3.5-7.9-7.9-7.9c-3.9,0-7.1,2.9-7.7,6.6v-0.3H133l-16.1-19v-34.6l16.1-19.7h66.1c0.7,3.6,3.9,6.3,7.7,6.3
			c4.3,0,7.9-3.5,7.9-7.9c0-4.3-3.5-7.9-7.9-7.9c-3.9,0-7,2.8-7.7,6.4h-67.5l-17.7,21.6V144H84.1v-42l40.6-25.4
			c0.8,0.6,1.8,0.9,2.8,0.9C129.5,77.5,131.1,76.3,131.9,74.7 M16,307.5v-219l65-45.6v310.2L16,307.5z M242,43l65,45.6v219l-65,45.6
			V43z M84.1,41.1l39.2,29.3c-0.4,0.7-0.6,1.4-0.6,2.3c0,0.5,0.1,1,0.2,1.4L84.1,98.4V41.1z M199.4,74.7c0.3-0.6,0.5-1.3,0.5-2
			c0-0.7-0.2-1.4-0.5-2L239,41v57.3L199.4,74.7z M97,46.9L160.7,3h0.8l64.1,44.2l-28.4,21.2c-0.7-0.4-1.4-0.6-2.3-0.6
			c-2.3,0-4.3,1.7-4.7,3.9h-58c-0.4-2.2-2.4-3.9-4.7-3.9c-0.7,0-1.4,0.2-2,0.5L97,46.9z M159.8,0L94.4,45.1l-10.3-7.7v-0.1L13,87
			v14.2l-13,9v176.2l13,9v13.7l71,49.8v-14.5l75.7,52.2h2.7l76.5-52.8v15.1l70.4-49.4l0.6-0.4v-14.3l12.2-8.4V110.2l-12.2-8.4V87
			l-71-49.8v0.1l0,0l-10.8,8.1L162.4,0H159.8z"/>
	</defs>
	<clipPath id="SVGID_2_">
		<use xlink:href="#SVGID_1_"  style="overflow:visible;"/>
	</clipPath>
	
		<linearGradient id="SVGID_3_" gradientUnits="userSpaceOnUse" x1="9.466112e-08" y1="397.6167" x2="1" y2="397.6167" gradientTransform="matrix(322.2028 0 0 -322.2028 -3.049988e-05 128311.5078)">
		<stop  offset="0" style="stop-color:#0084B1"/>
		<stop  offset="1" style="stop-color:#00A356"/>
	</linearGradient>
	<rect x="0" y="0" class="st0" width="322.2" height="396.6"/>
</g>
</svg>
