<svg xmlns="http://www.w3.org/2000/svg" width="512" height="512" viewBox="0 0 511.99999 511.99999"><g color="#000"><path d="M477.755 383.99L256.035 512 34.28 384.01l-.035-256L255.965 0 477.72 127.99z" overflow="visible" fill="#22241c"/><path d="M170.715 88.675l-34.1 19.688V206.8l187.55 108.283 119.35-68.907v-98.438l-34.1-19.688v98.44l-85.25 49.218-153.45-88.595z" overflow="visible" fill="#f60"/><path d="M443.516 285.552v78.75l-34.1 19.688v-78.75l-153.3-87.643-153.6 87.643v78.75l-34.1-19.492v-78.946l187.55-108.282z" overflow="visible" fill="#fc0"/><path d="M221.826 255.966l-34.092 19.745-85.167-49.23v-98.46l-34.092 19.744v98.46l119.26 68.845 68.184-39.36-34.094-19.744zm68.186 0l85.298-49.23v-98.33L341.217 88.66v98.462l-85.298 49.23 34.092 19.614z" overflow="visible" fill="#4a0"/></g></svg>