<?xml version="1.0" standalone="no"?><!-- Generator: Gravit.io --><svg xmlns="http://www.w3.org/2000/svg" xmlns:xlink="http://www.w3.org/1999/xlink" style="isolation:isolate" viewBox="0 0 280 300" width="280" height="300"><defs><clipPath id="_clipPath_JpizgR0xQd8FQmYFWxgUXZNKOhfKJpZi"><rect width="280" height="300"/></clipPath></defs><g clip-path="url(#_clipPath_JpizgR0xQd8FQmYFWxgUXZNKOhfKJpZi)"><path d=" M 40 208 L 60 219 L 60 173 L 65 170 L 45 159 L 40 162 L 40 208 L 40 208 L 40 208 L 40 208 L 40 208 L 40 208 L 40 208 L 40 208 L 40 208 Z  M 75 141 L 95 153 L 140 127 L 145 130 L 165 118 L 140 104 L 75 141 L 75 141 L 75 141 L 75 141 L 75 141 L 75 141 L 75 141 L 75 141 L 75 141 Z  M 40 92 L 40 150 L 100 185 L 135 165 L 115 153 L 100 162 L 60 139 L 60 81 L 40 92 L 40 92 L 40 92 L 40 92 L 40 92 L 40 92 L 40 92 L 40 92 Z  M 80 69 L 80 127 L 85 130 L 105 118 L 100 115 L 100 58 L 80 69 L 80 69 L 80 69 L 80 69 L 80 69 L 80 69 L 80 69 Z  M 115 147 L 180 185 L 205 170 L 185 159 L 180 162 L 135 136 L 115 147 L 115 147 L 115 147 L 115 147 L 115 147 L 115 147 Z  M 145 136 L 165 147 L 200 127 L 200 69 L 180 58 L 180 115 L 145 136 L 145 136 L 145 136 L 145 136 L 145 136 Z  M 175 147 L 220 173 L 220 219 L 240 208 L 240 162 L 195 136 L 175 147 L 175 147 L 175 147 L 175 147 Z  M 220 81 L 220 139 L 215 141 L 235 153 L 240 150 L 240 92 L 220 81 L 220 81 L 220 81 Z  M 260 220 L 200 254 L 140 289 L 80 254 L 20 220 L 20 150 L 20 81 L 80 46 L 140 12 L 200 46 L 260 81 L 260 150 L 260 220 L 260 220 Z  M 90 194 L 90 199 L 72 199 L 72 212 L 90 212 L 90 217 L 72 217 L 72 217 Q 70 217 68 216 L 68 216 L 68 216 Q 67 215 67 213 L 67 213 L 67 199 L 67 199 Q 67 197 68 196 L 68 196 L 68 196 Q 70 194 72 194 L 72 194 L 90 194 L 90 194 Z  M 116 203 L 116 194 L 121 194 L 121 217 L 116 217 L 116 208 L 102 208 L 102 217 L 97 217 L 97 194 L 102 194 L 102 203 L 116 203 L 116 203 Z  M 133 199 L 133 205 L 146 205 L 146 199 L 133 199 L 133 199 Z  M 177 199 L 164 199 L 164 212 L 177 212 L 177 199 L 177 199 Z  M 212 199 L 212 199 L 212 201 L 207 201 L 207 199 L 194 199 L 194 203 L 208 203 L 208 203 Q 210 203 211 205 L 211 205 L 211 205 Q 212 206 212 208 L 212 208 L 212 213 L 212 213 Q 212 215 211 216 L 211 216 L 211 216 Q 210 217 208 217 L 208 217 L 194 217 L 194 217 Q 192 217 191 216 L 191 216 L 191 216 Q 189 215 189 213 L 189 213 L 189 211 L 194 211 L 194 212 L 207 212 L 207 208 L 194 208 L 194 208 Q 192 208 191 207 L 191 207 L 191 207 Q 189 206 189 204 L 189 204 L 189 199 L 189 199 Q 189 197 191 196 L 191 196 L 191 196 Q 192 194 194 194 L 194 194 L 208 194 L 208 194 Q 210 194 211 196 L 211 196 L 211 196 Q 212 197 212 199 L 212 199 Z  M 104 238 L 109 226 L 114 226 L 106 249 L 102 249 L 96 235 L 94 240 L 91 249 L 87 249 L 79 226 L 84 226 L 89 240 L 90 238 L 94 226 L 99 226 L 104 240 L 104 238 L 104 238 Z  M 121 226 L 142 226 L 142 231 L 126 231 L 126 235 L 139 235 L 139 240 L 126 240 L 126 244 L 142 244 L 142 249 L 121 249 L 121 226 L 121 226 Z  M 172 231 L 172 231 L 172 233 L 167 233 L 167 231 L 154 231 L 154 235 L 168 235 L 168 235 Q 170 235 171 237 L 171 237 L 171 237 Q 172 238 172 240 L 172 240 L 172 245 L 172 245 Q 172 247 171 248 L 171 248 L 171 248 Q 170 249 168 249 L 168 249 L 154 249 L 154 249 Q 152 249 151 248 L 151 248 L 151 248 Q 149 247 149 245 L 149 245 L 149 243 L 154 243 L 154 244 L 167 244 L 167 240 L 154 240 L 154 240 Q 152 240 151 239 L 151 239 L 151 239 Q 149 238 149 236 L 149 236 L 149 231 L 149 231 Q 149 229 151 228 L 151 228 L 151 228 Q 152 226 154 226 L 154 226 L 168 226 L 168 226 Q 170 226 171 228 L 171 228 L 171 228 Q 172 229 172 231 L 172 231 Z  M 179 231 L 179 226 L 202 226 L 202 231 L 193 231 L 193 249 L 188 249 L 188 231 L 179 231 L 179 231 Z  M 133 194 L 133 194 L 147 194 L 147 194 Q 149 194 150 196 L 150 196 L 150 196 Q 151 197 151 199 L 151 199 L 151 217 L 146 217 L 146 210 L 133 210 L 133 217 L 128 217 L 128 199 L 128 199 Q 128 197 130 196 L 130 196 L 130 196 Q 131 194 133 194 L 133 194 Z  M 164 194 L 164 194 L 177 194 L 177 194 Q 179 194 181 196 L 181 196 L 181 196 Q 182 197 182 199 L 182 199 L 182 213 L 182 213 Q 182 215 181 216 L 181 216 L 181 216 Q 179 217 177 217 L 177 217 L 164 217 L 164 217 Q 162 217 160 216 L 160 216 L 160 216 Q 159 215 159 213 L 159 213 L 159 199 L 159 199 Q 159 197 160 196 L 160 196 L 160 196 Q 162 194 164 194 L 164 194 Z " fill-rule="evenodd" fill="rgb(0,0,0)"/></g></svg>