<svg xmlns="http://www.w3.org/2000/svg" xmlns:xlink="http://www.w3.org/1999/xlink" style="isolation:isolate" viewBox="0 0 280 300" width="280" height="300"><path d=" M 260 219.393 L 140 288.675 L 20 219.393 L 20 80.829 L 140 11.547 L 260 80.829 L 260 219.393 Z  M 110 144.338 L 90 155.885 L 88.526 155.034 L 100 161.658 L 120 150.111 L 120 150.111 L 120 150.111 L 110 144.338 L 110 144.338 L 110 144.338 Z  M 149.991 132.785 L 140 127.017 L 130 132.791 L 139.988 138.557 L 149.991 132.785 L 149.991 132.785 L 149.991 132.785 Z  M 160 150.111 L 180 161.658 L 190 155.885 L 170 144.338 L 160 150.111 L 160 150.111 L 160 150.111 L 160 150.111 L 160 150.111 Z  M 140 161.658 L 180 184.752 L 210 167.432 L 220 173.205 L 220 219.393 L 240 207.846 L 240 161.658 L 230 155.885 L 240 150.111 L 240 92.376 L 220 80.829 L 220 138.564 L 210 144.338 L 210 144.338 L 190 132.791 L 200 127.017 L 200 69.282 L 180 57.735 L 180 115.47 L 169.997 121.242 L 140 103.923 L 110 121.244 L 100 115.47 L 100 57.735 L 80 69.282 L 80 127.017 L 90 132.791 L 70 144.338 L 60 138.564 L 60 80.829 L 40 92.376 L 40 150.111 L 50 155.885 L 50 155.885 L 40 161.658 L 40 207.846 L 60 219.393 L 60 173.205 L 70 167.432 L 100 184.752 L 140 161.658 L 140 161.658 L 140 161.658 Z " fill-rule="evenodd" fill="rgb(0,0,0)"/></svg>
