<svg xmlns="http://www.w3.org/2000/svg" xmlns:xlink="http://www.w3.org/1999/xlink" style="isolation:isolate" viewBox="0 0 280 300" width="280" height="300"><path d=" M 260 220 L 200 254 L 140 289 L 80 254 L 20 220 L 20 150 L 20 81 L 80 46 L 140 12 L 200 46 L 260 81 L 260 150 L 260 220 Z  M 40 208 L 60 219 L 60 173 L 65 170 L 45 159 L 40 162 L 40 208 L 40 208 L 40 208 L 40 208 L 40 208 L 40 208 L 40 208 L 40 208 Z  M 75 141 L 95 153 L 140 127 L 145 130 L 165 118 L 140 104 L 75 141 L 75 141 L 75 141 L 75 141 L 75 141 L 75 141 L 75 141 L 75 141 Z  M 40 92 L 40 150 L 100 185 L 135 165 L 115 153 L 100 162 L 60 139 L 60 81 L 40 92 L 40 92 L 40 92 L 40 92 L 40 92 L 40 92 L 40 92 Z  M 80 69 L 80 127 L 85 130 L 105 118 L 100 115 L 100 58 L 80 69 L 80 69 L 80 69 L 80 69 L 80 69 L 80 69 Z  M 115 147 L 180 185 L 205 170 L 185 159 L 180 162 L 135 136 L 115 147 L 115 147 L 115 147 L 115 147 L 115 147 Z  M 145 136 L 165 147 L 200 127 L 200 69 L 180 58 L 180 115 L 145 136 L 145 136 L 145 136 L 145 136 Z  M 175 147 L 220 173 L 220 219 L 240 208 L 240 162 L 195 136 L 175 147 L 175 147 L 175 147 Z  M 220 81 L 220 139 L 215 141 L 235 153 L 240 150 L 240 92 L 220 81 L 220 81 Z " fill-rule="evenodd" fill="rgb(0,0,0)"/></svg>
